<?xml version="1.0" encoding="UTF-8" standalone="no"?>
<svg
   xmlns:dc="http://purl.org/dc/elements/1.1/"
   xmlns:cc="http://creativecommons.org/ns#"
   xmlns:rdf="http://www.w3.org/1999/02/22-rdf-syntax-ns#"
   xmlns:svg="http://www.w3.org/2000/svg"
   xmlns="http://www.w3.org/2000/svg"
   xmlns:sodipodi="http://sodipodi.sourceforge.net/DTD/sodipodi-0.dtd"
   xmlns:inkscape="http://www.inkscape.org/namespaces/inkscape"
   width="256"
   height="256"
   viewBox="0 0 100 100"
   version="1.1"
   id="svg6"
   sodipodi:docname="favicon.svg"
   inkscape:version="1.0.2-2 (e86c870879, 2021-01-15)">
  <metadata
     id="metadata12">
    <rdf:RDF>
      <cc:Work
         rdf:about="">
        <dc:format>image/svg+xml</dc:format>
        <dc:type
           rdf:resource="http://purl.org/dc/dcmitype/StillImage" />
        <dc:title></dc:title>
      </cc:Work>
    </rdf:RDF>
  </metadata>
  <defs
     id="defs10" />
  <sodipodi:namedview
     pagecolor="#ffffff"
     bordercolor="#666666"
     borderopacity="1"
     objecttolerance="10"
     gridtolerance="10"
     guidetolerance="10"
     inkscape:pageopacity="0"
     inkscape:pageshadow="2"
     inkscape:window-width="1920"
     inkscape:window-height="1017"
     id="namedview8"
     showgrid="false"
     inkscape:zoom="1.1739077"
     inkscape:cx="-136.54125"
     inkscape:cy="39.722963"
     inkscape:window-x="-8"
     inkscape:window-y="-8"
     inkscape:window-maximized="1"
     inkscape:current-layer="svg6" />
  <rect
     width="100"
     height="100"
     rx="0"
     fill="#52dae6"
     id="rect2" />
  <g
     id="g988"
     transform="matrix(0.15600731,0,0,0.15707307,10.47445,9.5360598)">
    <g
       id="g6"
       style="fill:#ffffff;fill-opacity:1">
      <g
         id="g4"
         style="fill:#ffffff;fill-opacity:1">
        <path
           d="m 512,331.465 c 0,-8.285 -6.716,-15.001 -15,-15.001 H 338.358 v -34.711 c 0,-16.542 -13.458,-30 -30,-30 h -4.016 V 181.806 H 102.516 v 69.947 h -30 V 181.806 H 39.302 v 69.947 h -4.016 c -16.542,0 -30,13.458 -30,30 v 76.615 c 0,1.566 0.249,3.112 0.722,4.586 C 2.366,365.691 0,370.034 0,374.94 c 0,8.284 6.716,15 15,15 0.021,0 0.042,-10e-4 0.063,-10e-4 21.555,-0.016 42.235,-8.045 60.184,-23.297 17.972,15.268 38.68,23.299 60.257,23.299 21.576,0 42.28,-8.031 60.246,-23.299 17.973,15.268 38.68,23.299 60.257,23.299 21.572,0 42.274,-8.027 60.245,-23.289 17.97,15.261 38.673,23.289 60.244,23.289 21.577,0 42.281,-8.031 60.247,-23.299 17.972,15.268 38.68,23.299 60.257,23.299 8.284,0 15,-6.716 15,-15 0,-3.204 -1.013,-6.167 -2.724,-8.604 L 512,366.319 Z M 153.426,226.398 h -9.049 c -8.284,0 -15,-6.716 -15,-15 0,-8.284 6.716,-15 15,-15 h 9.049 c 8.284,0 15,6.716 15,15 0,8.284 -6.716,15 -15,15 z m 128.402,20.354 V 353.73 c -8.305,4.096 -17.009,6.211 -25.821,6.211 -1.396,0 -2.789,-0.072 -4.179,-0.178 v -13.298 h -30.831 v 1.789 c -3.266,-2.285 -6.451,-4.881 -9.525,-7.809 -5.651,-5.382 -13.352,-7.295 -20.475,-5.778 v -87.915 -21.709 c 0,-8.284 6.716,-15 15,-15 8.284,0 15,6.716 15,15 v 21.709 15.869 h 30.831 v -15.869 -21.709 c 0,-8.284 6.716,-15 15,-15 8.284,0 15,6.716 15,15 z"
           id="path2"
           style="fill:#ffffff;fill-opacity:1" />
      </g>
    </g>
    <g
       id="g12"
       style="fill:#ffffff;fill-opacity:1">
      <g
         id="g10"
         style="fill:#ffffff;fill-opacity:1">
        <path
           id="rect8"
           style="fill:#ffffff;fill-opacity:1"
           d="m 221,292.621 h 30.831 v 23.843 H 221 Z" />
      </g>
    </g>
    <g
       id="g18"
       style="fill:#ffffff;fill-opacity:1">
      <g
         id="g16"
         style="fill:#ffffff;fill-opacity:1">
        <path
           d="m 497.003,431.88 c -8.512,0 -16.92,-1.987 -24.968,-5.813 -6.838,-3.25 -13.417,-7.823 -19.567,-13.681 -8.822,-8.401 -22.636,-8.397 -31.451,0.003 -6.147,5.857 -12.722,10.428 -19.556,13.678 -8.046,3.826 -16.453,5.813 -24.964,5.813 -8.512,0 -16.92,-1.987 -24.968,-5.813 -6.833,-3.249 -13.408,-7.818 -19.556,-13.671 -8.814,-8.395 -22.624,-8.393 -31.438,-0.001 -6.148,5.854 -12.724,10.423 -19.558,13.672 -8.048,3.826 -16.457,5.813 -24.969,5.813 -8.512,0 -16.919,-1.987 -24.967,-5.813 -6.838,-3.251 -13.417,-7.824 -19.569,-13.683 -8.817,-8.395 -22.632,-8.395 -31.447,0.005 -6.147,5.857 -12.722,10.428 -19.556,13.678 -8.045,3.826 -16.452,5.813 -24.963,5.813 -8.512,0 -16.92,-1.987 -24.968,-5.813 -6.838,-3.251 -13.417,-7.824 -19.569,-13.683 -8.817,-8.395 -22.631,-8.395 -31.448,0.005 -6.146,5.857 -12.721,10.428 -19.555,13.678 -8.045,3.826 -16.452,5.813 -24.964,5.813 -8.284,0 -15,6.716 -15,15 0,8.284 6.716,15 15,15 0.014,0 0.027,-10e-4 0.041,-10e-4 21.563,-0.01 42.252,-8.04 60.207,-23.298 17.972,15.268 38.68,23.299 60.257,23.299 21.576,0 42.28,-8.031 60.247,-23.299 17.972,15.268 38.679,23.299 60.256,23.299 21.572,0 42.275,-8.027 60.245,-23.288 17.97,15.261 38.673,23.288 60.244,23.288 21.577,0 42.281,-8.031 60.247,-23.298 17.973,15.268 38.68,23.298 60.257,23.298 8.284,0 15,-6.716 15,-15 0,-8.284 -6.716,-15 -15,-15 z"
           id="path14"
           style="fill:#ffffff;fill-opacity:1" />
      </g>
    </g>
    <g
       id="g24"
       style="fill:#ffffff;fill-opacity:1">
      <g
         id="g22"
         style="fill:#ffffff;fill-opacity:1">
        <path
           d="M 312.479,111.417 178.952,51.949 c -5.466,-2.434 -11.709,-2.434 -17.175,0 L 28.25,111.417 c -7.614,3.391 -12.52,10.946 -12.519,19.282 0,11.657 9.45,21.107 21.107,21.107 h 267.054 c 11.657,0 21.107,-9.45 21.107,-21.107 0,-8.336 -4.905,-15.891 -12.52,-19.282 z"
           id="path20"
           style="fill:#ffffff;fill-opacity:1" />
      </g>
    </g>
    <g
       id="g26"
       style="fill:#ffffff;fill-opacity:1" />
    <g
       id="g28"
       style="fill:#ffffff;fill-opacity:1" />
    <g
       id="g30"
       style="fill:#ffffff;fill-opacity:1" />
    <g
       id="g32"
       style="fill:#ffffff;fill-opacity:1" />
    <g
       id="g34"
       style="fill:#ffffff;fill-opacity:1" />
    <g
       id="g36"
       style="fill:#ffffff;fill-opacity:1" />
    <g
       id="g38"
       style="fill:#ffffff;fill-opacity:1" />
    <g
       id="g40"
       style="fill:#ffffff;fill-opacity:1" />
    <g
       id="g42"
       style="fill:#ffffff;fill-opacity:1" />
    <g
       id="g44"
       style="fill:#ffffff;fill-opacity:1" />
    <g
       id="g46"
       style="fill:#ffffff;fill-opacity:1" />
    <g
       id="g48"
       style="fill:#ffffff;fill-opacity:1" />
    <g
       id="g50"
       style="fill:#ffffff;fill-opacity:1" />
    <g
       id="g52"
       style="fill:#ffffff;fill-opacity:1" />
    <g
       id="g54"
       style="fill:#ffffff;fill-opacity:1" />
  </g>
</svg>
