<!-- Generated by IcoMoon.io -->
<svg version="1.1" xmlns="http://www.w3.org/2000/svg" width="1024" height="1024" viewBox="0 0 1024 1024">
<title></title>
<g id="icomoon-ignore">
</g>
<path d="M928 512h-160v-128c0-70.6 57.4-128 128-128h16c26.6 0 48-21.4 48-48v-96c0-26.6-21.4-48-48-48h-16c-176.8 0-320 143.2-320 320v480c0 53 43 96 96 96h256c53 0 96-43 96-96v-256c0-53-43-96-96-96zM352 512h-160v-128c0-70.6 57.4-128 128-128h16c26.6 0 48-21.4 48-48v-96c0-26.6-21.4-48-48-48h-16c-176.8 0-320 143.2-320 320v480c0 53 43 96 96 96h256c53 0 96-43 96-96v-256c0-53-43-96-96-96z"></path>
</svg>
