<!-- Generated by IcoMoon.io -->
<svg version="1.1" xmlns="http://www.w3.org/2000/svg" width="1024" height="1024" viewBox="0 0 1024 1024">
<title></title>
<g id="icomoon-ignore">
</g>
<path d="M242.24 512c0-145.696 118.56-264.256 264.256-264.256 145.728 0 264.256 118.56 264.256 264.256s-118.528 264.256-264.256 264.256c-145.696 0-264.256-118.56-264.256-264.256zM275.264 512c0 127.488 103.744 231.232 231.232 231.232 127.52 0 231.232-103.744 231.232-231.232 0-127.52-103.712-231.232-231.232-231.232-127.488 0-231.232 103.744-231.232 231.232zM478.976 148.64v-132.128c0-9.119 7.393-16.512 16.512-16.512s16.512 7.393 16.512 16.512v0 132.16c0 9.119-7.393 16.512-16.512 16.512s-16.512-7.393-16.512-16.512v0zM495.488 1024c-0.010 0-0.021 0-0.032 0-9.102 0-16.48-7.378-16.48-16.48 0-0.011 0-0.023 0-0.034v0.002-132.16c0-9.119 7.393-16.512 16.512-16.512s16.512 7.393 16.512 16.512v0 132.16c0 9.12-7.36 16.48-16.512 16.48zM148.64 545.024h-132.128c-9.119 0-16.512-7.393-16.512-16.512s7.393-16.512 16.512-16.512v0h132.16c9.119 0 16.512 7.393 16.512 16.512s-7.393 16.512-16.512 16.512v0zM1024 528.512c0 9.12-7.36 16.512-16.512 16.512h-132.16c-9.119 0-16.512-7.393-16.512-16.512s7.393-16.512 16.512-16.512v0h132.16c9.12 0 16.512 7.36 16.512 16.512zM161.632 878.88c-0.026 0-0.056 0-0.086 0-9.102 0-16.48-7.378-16.48-16.48 0-4.58 1.869-8.724 4.885-11.711l93.441-93.441c2.989-2.989 7.119-4.838 11.68-4.838 9.123 0 16.518 7.395 16.518 16.518 0 4.561-1.849 8.691-4.838 11.68l-93.44 93.44c-3.2 3.2-7.456 4.8-11.68 4.8zM757.248 266.72c-2.991-2.989-4.841-7.118-4.841-11.68s1.85-8.691 4.84-11.68l93.44-93.376c2.989-2.989 7.119-4.838 11.68-4.838 9.123 0 16.518 7.395 16.518 16.518 0 4.561-1.849 8.691-4.838 11.68v0l-93.44 93.408c-2.981 3.006-7.113 4.867-11.68 4.867s-8.699-1.861-11.679-4.866l-0.001-0.001zM874.048 850.688c2.989 2.989 4.838 7.119 4.838 11.68 0 9.123-7.395 16.518-16.518 16.518-4.561 0-8.691-1.849-11.68-4.838l-93.44-93.44c-2.989-2.989-4.838-7.119-4.838-11.68 0-9.123 7.395-16.518 16.518-16.518 4.561 0 8.691 1.849 11.68 4.838v0zM149.92 173.312c-2.989-2.989-4.838-7.119-4.838-11.68 0-9.123 7.395-16.518 16.518-16.518 4.561 0 8.691 1.849 11.68 4.838v0l93.44 93.44c2.989 2.989 4.838 7.119 4.838 11.68 0 9.123-7.395 16.518-16.518 16.518-4.561 0-8.691-1.849-11.68-4.838v0z"></path>
<path d="M242.24 512c0-145.696 118.56-264.256 264.256-264.256 145.728 0 264.256 118.56 264.256 264.256s-118.528 264.256-264.256 264.256c-145.696 0-264.256-118.56-264.256-264.256zM275.264 512c0 127.488 103.744 231.232 231.232 231.232 127.52 0 231.232-103.744 231.232-231.232 0-127.52-103.712-231.232-231.232-231.232-127.488 0-231.232 103.744-231.232 231.232zM478.976 148.64v-132.128c0-9.119 7.393-16.512 16.512-16.512s16.512 7.393 16.512 16.512v0 132.16c0 9.119-7.393 16.512-16.512 16.512s-16.512-7.393-16.512-16.512v0zM495.488 1024c-0.010 0-0.021 0-0.032 0-9.102 0-16.48-7.378-16.48-16.48 0-0.011 0-0.023 0-0.034v0.002-132.16c0-9.119 7.393-16.512 16.512-16.512s16.512 7.393 16.512 16.512v0 132.16c0 9.12-7.36 16.48-16.512 16.48zM148.64 545.024h-132.128c-9.119 0-16.512-7.393-16.512-16.512s7.393-16.512 16.512-16.512v0h132.16c9.119 0 16.512 7.393 16.512 16.512s-7.393 16.512-16.512 16.512v0zM1024 528.512c0 9.12-7.36 16.512-16.512 16.512h-132.16c-9.119 0-16.512-7.393-16.512-16.512s7.393-16.512 16.512-16.512v0h132.16c9.12 0 16.512 7.36 16.512 16.512zM161.632 878.88c-0.026 0-0.056 0-0.086 0-9.102 0-16.48-7.378-16.48-16.48 0-4.58 1.869-8.724 4.885-11.711l93.441-93.441c2.989-2.989 7.119-4.838 11.68-4.838 9.123 0 16.518 7.395 16.518 16.518 0 4.561-1.849 8.691-4.838 11.68l-93.44 93.44c-3.2 3.2-7.456 4.8-11.68 4.8zM757.248 266.72c-2.991-2.989-4.841-7.118-4.841-11.68s1.85-8.691 4.84-11.68l93.44-93.376c2.989-2.989 7.119-4.838 11.68-4.838 9.123 0 16.518 7.395 16.518 16.518 0 4.561-1.849 8.691-4.838 11.68v0l-93.44 93.408c-2.981 3.006-7.113 4.867-11.68 4.867s-8.699-1.861-11.679-4.866l-0.001-0.001zM874.048 850.688c2.989 2.989 4.838 7.119 4.838 11.68 0 9.123-7.395 16.518-16.518 16.518-4.561 0-8.691-1.849-11.68-4.838l-93.44-93.44c-2.989-2.989-4.838-7.119-4.838-11.68 0-9.123 7.395-16.518 16.518-16.518 4.561 0 8.691 1.849 11.68 4.838v0zM149.92 173.312c-2.989-2.989-4.838-7.119-4.838-11.68 0-9.123 7.395-16.518 16.518-16.518 4.561 0 8.691 1.849 11.68 4.838v0l93.44 93.44c2.989 2.989 4.838 7.119 4.838 11.68 0 9.123-7.395 16.518-16.518 16.518-4.561 0-8.691-1.849-11.68-4.838v0z"></path>
</svg>
