<!-- Generated by IcoMoon.io -->
<svg version="1.1" xmlns="http://www.w3.org/2000/svg" width="1024" height="1024" viewBox="0 0 1024 1024">
<title></title>
<g id="icomoon-ignore">
</g>
<path d="M614.398 178.437v-72.128c0-9.965 7.963-18.027 17.807-18.027s17.809 8.062 17.809 18.027v72.128c0 9.961-7.964 18.027-17.809 18.027s-17.807-8.067-17.807-18.027zM1023.989 484.955c0 9.97-7.964 18.032-17.809 18.032h-71.232c-9.846 0-17.809-8.062-17.809-18.032s7.963-18.037 17.809-18.037h71.232c9.844 0 17.809 8.067 17.809 18.037zM195.902 935.719c-106.187 0-195.891-93.229-195.891-203.593 0-110.359 89.704-203.593 195.891-203.593 20.088 0 39.965 3.211 59.302 9.564 19.957-88.478 97.063-152.681 188.021-153.635 28.091-84.402 107.423-142.98 195.903-142.98 114.19 0 207.074 94.051 207.074 209.662 0 60.41-25.56 116.928-70.008 156.761 26.407 34.741 43 77.691 43 124.221 0 110.364-89.704 203.593-195.891 203.593zM480.112 387.674c72.867 13.451 133.32 68 153.644 141.162 45.048 2.607 86.081 22.542 118.4 52.532 37.101-33.003 58.43-79.991 58.43-130.223 0-95.718-76.922-173.598-171.458-173.598-70.319 0-133.445 44.787-159.015 110.128zM195.902 899.66h427.401c86.886 0 160.273-76.713 160.273-167.534 0-90.816-73.388-167.534-160.273-167.534-0.664 0.18-2.281 0.359-3.549 0.359-8.47 0-15.792-6.041-17.458-14.485-14.977-75.391-81.043-130.12-157.076-130.12-81.32 0-149.423 62.124-158.415 144.496-0.623 5.743-3.929 10.848-8.887 13.696-4.972 2.857-10.991 3.136-16.174 0.76-21.249-9.757-43.407-14.707-65.842-14.707-86.887 0-160.275 76.718-160.275 167.534 0 90.821 73.388 167.534 160.275 167.534zM364.073 227.243c-6.955-7.047-6.955-18.452 0-25.503 6.957-7.042 18.226-7.042 25.181 0l50.384 50.997c6.955 7.051 6.955 18.452 0 25.494-3.481 3.523-8.037 5.285-12.595 5.285-4.555 0-9.111-1.762-12.59-5.285zM842.583 278.231c-6.957-7.042-6.957-18.443 0-25.494l50.383-50.997c6.955-7.042 18.226-7.042 25.181 0 6.955 7.051 6.955 18.457 0 25.503l-50.38 50.988c-3.48 3.523-8.035 5.285-12.59 5.285-4.56 0-9.115-1.762-12.593-5.285zM863.086 634.849c6.957-7.042 18.226-7.042 25.185 0l50.36 51.012c6.957 7.051 6.957 18.457 0 25.494-3.474 3.528-8.034 5.29-12.589 5.29s-9.115-1.762-12.59-5.29l-50.366-50.997c-6.955-7.051-6.955-18.462 0-25.508z"></path>
<path d="M614.398 178.437v-72.128c0-9.965 7.963-18.027 17.807-18.027s17.809 8.062 17.809 18.027v72.128c0 9.961-7.964 18.027-17.809 18.027s-17.807-8.067-17.807-18.027zM1023.989 484.955c0 9.97-7.964 18.032-17.809 18.032h-71.232c-9.846 0-17.809-8.062-17.809-18.032s7.963-18.037 17.809-18.037h71.232c9.844 0 17.809 8.067 17.809 18.037zM195.902 935.719c-106.187 0-195.891-93.229-195.891-203.593 0-110.359 89.704-203.593 195.891-203.593 20.088 0 39.965 3.211 59.302 9.564 19.957-88.478 97.063-152.681 188.021-153.635 28.091-84.402 107.423-142.98 195.903-142.98 114.19 0 207.074 94.051 207.074 209.662 0 60.41-25.56 116.928-70.008 156.761 26.407 34.741 43 77.691 43 124.221 0 110.364-89.704 203.593-195.891 203.593zM480.112 387.674c72.867 13.451 133.32 68 153.644 141.162 45.048 2.607 86.081 22.542 118.4 52.532 37.101-33.003 58.43-79.991 58.43-130.223 0-95.718-76.922-173.598-171.458-173.598-70.319 0-133.445 44.787-159.015 110.128zM195.902 899.66h427.401c86.886 0 160.273-76.713 160.273-167.534 0-90.816-73.388-167.534-160.273-167.534-0.664 0.18-2.281 0.359-3.549 0.359-8.47 0-15.792-6.041-17.458-14.485-14.977-75.391-81.043-130.12-157.076-130.12-81.32 0-149.423 62.124-158.415 144.496-0.623 5.743-3.929 10.848-8.887 13.696-4.972 2.857-10.991 3.136-16.174 0.76-21.249-9.757-43.407-14.707-65.842-14.707-86.887 0-160.275 76.718-160.275 167.534 0 90.821 73.388 167.534 160.275 167.534zM364.073 227.243c-6.955-7.047-6.955-18.452 0-25.503 6.957-7.042 18.226-7.042 25.181 0l50.384 50.997c6.955 7.051 6.955 18.452 0 25.494-3.481 3.523-8.037 5.285-12.595 5.285-4.555 0-9.111-1.762-12.59-5.285zM842.583 278.231c-6.957-7.042-6.957-18.443 0-25.494l50.383-50.997c6.955-7.042 18.226-7.042 25.181 0 6.955 7.051 6.955 18.457 0 25.503l-50.38 50.988c-3.48 3.523-8.035 5.285-12.59 5.285-4.56 0-9.115-1.762-12.593-5.285zM863.086 634.849c6.957-7.042 18.226-7.042 25.185 0l50.36 51.012c6.957 7.051 6.957 18.457 0 25.494-3.474 3.528-8.034 5.29-12.589 5.29s-9.115-1.762-12.59-5.29l-50.366-50.997c-6.955-7.051-6.955-18.462 0-25.508z"></path>
</svg>
