<!-- Generated by IcoMoon.io -->
<svg version="1.1" xmlns="http://www.w3.org/2000/svg" width="1024" height="1024" viewBox="0 0 1024 1024">
<title></title>
<g id="icomoon-ignore">
</g>
<path d="M0.001 455.114c0-145.46 114.436-273.047 244.874-273.047 25.11 0 49.959 4.040 74.129 12.070 25.135-112.481 122.723-194.093 237.529-194.093 110.025 0 206.331 75.678 235.681 182.452 124.912 8.149 231.785 132.055 231.785 272.619 0 145.455-114.438 273.047-244.874 273.047h-534.25c-130.438 0-244.874-127.592-244.874-273.047zM44.524 455.114c0 107.419 85.675 227.535 200.352 227.535h534.25c114.653 0 200.352-120.116 200.352-227.535 0-107.425-85.698-227.541-200.352-227.541-0.611 0.228-2.174 0.4-3.785 0.468-11.172-0.554-20.348-7.419-22.475-18.285-18.701-95.143-101.263-164.213-196.332-164.213-101.654 0-186.785 78.388-198.027 182.36-0.78 7.248-4.912 13.668-11.108 17.269-6.238 3.618-13.697 3.978-20.22 0.953-26.566-12.315-54.259-18.553-82.304-18.553-114.676 0-200.352 120.116-200.352 227.541zM378.434 887.437c12.298 0 22.261 10.187 22.261 22.759 0 12.561-9.964 22.747-22.261 22.747-12.292 0-22.261-10.187-22.261-22.747 0-12.572 9.969-22.759 22.261-22.759zM601.047 887.437c12.298 0 22.261 10.187 22.261 22.759 0 12.561-9.964 22.747-22.261 22.747-12.292 0-22.261-10.187-22.261-22.747 0-12.572 9.969-22.759 22.261-22.759zM512.002 841.925c-12.292 0-22.261-10.181-22.261-22.753s9.969-22.753 22.261-22.753c12.298 0 22.261 10.181 22.261 22.753s-9.964 22.753-22.261 22.753zM734.615 796.419c12.298 0 22.261 10.181 22.261 22.753s-9.964 22.753-22.261 22.753c-12.292 0-22.261-10.181-22.261-22.753s9.969-22.753 22.261-22.753zM467.479 1023.955c-12.292 0-22.261-10.181-22.261-22.747 0-12.572 9.969-22.753 22.261-22.753 12.298 0 22.261 10.181 22.261 22.753 0 12.566-9.964 22.747-22.261 22.747zM289.389 796.419c12.298 0 22.261 10.181 22.261 22.753s-9.964 22.753-22.261 22.753c-12.292 0-22.261-10.181-22.261-22.753s9.969-22.753 22.261-22.753z"></path>
<path d="M0.001 455.114c0-145.46 114.436-273.047 244.874-273.047 25.11 0 49.959 4.040 74.129 12.070 25.135-112.481 122.723-194.093 237.529-194.093 110.025 0 206.331 75.678 235.681 182.452 124.912 8.149 231.785 132.055 231.785 272.619 0 145.455-114.438 273.047-244.874 273.047h-534.25c-130.438 0-244.874-127.592-244.874-273.047zM44.524 455.114c0 107.419 85.675 227.535 200.352 227.535h534.25c114.653 0 200.352-120.116 200.352-227.535 0-107.425-85.698-227.541-200.352-227.541-0.611 0.228-2.174 0.4-3.785 0.468-11.172-0.554-20.348-7.419-22.475-18.285-18.701-95.143-101.263-164.213-196.332-164.213-101.654 0-186.785 78.388-198.027 182.36-0.78 7.248-4.912 13.668-11.108 17.269-6.238 3.618-13.697 3.978-20.22 0.953-26.566-12.315-54.259-18.553-82.304-18.553-114.676 0-200.352 120.116-200.352 227.541zM378.434 887.437c12.298 0 22.261 10.187 22.261 22.759 0 12.561-9.964 22.747-22.261 22.747-12.292 0-22.261-10.187-22.261-22.747 0-12.572 9.969-22.759 22.261-22.759zM601.047 887.437c12.298 0 22.261 10.187 22.261 22.759 0 12.561-9.964 22.747-22.261 22.747-12.292 0-22.261-10.187-22.261-22.747 0-12.572 9.969-22.759 22.261-22.759zM512.002 841.925c-12.292 0-22.261-10.181-22.261-22.753s9.969-22.753 22.261-22.753c12.298 0 22.261 10.181 22.261 22.753s-9.964 22.753-22.261 22.753zM734.615 796.419c12.298 0 22.261 10.181 22.261 22.753s-9.964 22.753-22.261 22.753c-12.292 0-22.261-10.181-22.261-22.753s9.969-22.753 22.261-22.753zM467.479 1023.955c-12.292 0-22.261-10.181-22.261-22.747 0-12.572 9.969-22.753 22.261-22.753 12.298 0 22.261 10.181 22.261 22.753 0 12.566-9.964 22.747-22.261 22.747zM289.389 796.419c12.298 0 22.261 10.181 22.261 22.753s-9.964 22.753-22.261 22.753c-12.292 0-22.261-10.181-22.261-22.753s9.969-22.753 22.261-22.753z"></path>
</svg>
